<svg width="14px" height="20px" viewBox="0 0 7 12" version="1.1" xmlns="http://www.w3.org/2000/svg" xmlns:xlink="http://www.w3.org/1999/xlink">
<defs></defs>
<g id="Page-1" stroke="none" stroke-width="1" fill="none" fill-rule="evenodd">
<g id="MF_Homepage_Mobile_Nav" transform="translate(-15.000000, -516.000000)" fill="#323030">
<path d="M22,524.173333 C22,525.653333 20.8041667,526.64 19.1708333,526.813333 L19.1708333,528 L18.2520833,528 L18.2520833,526.826667 C16.6625,526.72 15.4958333,526 15,524.826667 L16.1666667,524.213333 C16.4875,525.013333 17.1729167,525.506667 18.2520833,525.613333 L18.2520833,522.386667 C16.8083333,521.906667 15.4958333,521.373333 15.4958333,519.72 C15.4958333,518.226667 16.75,517.306667 18.2520833,517.173333 L18.2520833,516 L19.1708333,516 L19.1708333,517.186667 C20.3083333,517.32 21.2854167,517.906667 21.7958333,518.973333 L20.6583333,519.56 C20.3666667,518.893333 19.85625,518.52 19.1708333,518.4 L19.1708333,521.466667 C20.6,521.946667 22,522.48 22,524.173333 Z M16.8375,519.72 C16.8375,520.426667 17.31875,520.786667 18.2520833,521.146667 L18.2520833,518.386667 C17.40625,518.493333 16.8375,518.986667 16.8375,519.72 Z M19.1708333,525.586667 C20.11875,525.453333 20.64375,524.906667 20.64375,524.186667 C20.64375,523.4 20.075,523.04 19.1708333,522.693333 L19.1708333,525.586667 Z" id="$"></path>
</g>
</g>
</svg>