<?xml version="1.0" encoding="UTF-8"?>
<svg width="17px" height="16px" viewBox="0 0 17 16" version="1.1" xmlns="http://www.w3.org/2000/svg" xmlns:xlink="http://www.w3.org/1999/xlink">
    <!-- Generator: Sketch 48.2 (47327) - http://www.bohemiancoding.com/sketch -->
    <title>Group 7</title>
    <desc>Created with Sketch.</desc>
    <defs></defs>
    <g id="Componentes/Large/Header" stroke="none" stroke-width="1" fill="none" fill-rule="evenodd" transform="translate(-933.000000, -14.000000)">
        <g id="Header">
            <g id="Group-40">
                <g id="Group-10" transform="translate(620.000000, 11.000000)">
                    <g id="Group-49" transform="translate(51.000000, 0.000000)">
                        <g id="Group-2">
                            <g id="Group-6" transform="translate(262.666667, 3.000000)">
                                <g id="Group-42">
                                    <g id="Group-7">
                                        <path d="M7.34787244,9.95171723 L8.5188233,9.95171723 C8.5188233,8.35267681 10.8355433,7.87422377 10.8355433,5.93522988 C10.8355433,4.3613712 9.51350199,3.55555556 8.11591548,3.55555556 C6.90719201,3.55555556 5.77401376,4.13473555 5.33333333,5.35604989 L6.32801202,5.91004814 C6.59242028,5.07905076 7.25973636,4.68873381 8.10332461,4.68873381 C8.98468547,4.68873381 9.66459242,5.1042325 9.66459242,5.98559336 C9.66459242,7.48390682 7.34787244,7.92458725 7.34787244,9.95171723 Z M7.92705244,12.671345 C8.39291461,12.671345 8.74545895,12.3062098 8.74545895,11.8529385 C8.74545895,11.3996672 8.39291461,11.034532 7.92705244,11.034532 C7.47378114,11.034532 7.10864592,11.3996672 7.10864592,11.8529385 C7.10864592,12.3062098 7.47378114,12.671345 7.92705244,12.671345 Z" id="?" fill="#333030"></path>
                                        <circle id="Oval-4" stroke="#333030" stroke-width="0.855" cx="8" cy="8" r="7.5725"></circle>
                                    </g>
                                </g>
                            </g>
                        </g>
                    </g>
                </g>
            </g>
        </g>
    </g>
</svg>