<?xml version="1.0" encoding="UTF-8"?>
<svg width="20px" height="24px" viewBox="0 0 10 14" version="1.1" xmlns="http://www.w3.org/2000/svg" xmlns:xlink="http://www.w3.org/1999/xlink">
    <!-- Generator: Sketch 48.2 (47327) - http://www.bohemiancoding.com/sketch -->
    <title>Fill 1</title>
    <desc>Created with Sketch.</desc>
    <defs></defs>
    <g id="Componentes/Large/Header" stroke="none" stroke-width="1" fill="none" fill-rule="evenodd" transform="translate(-685.000000, -15.000000)">
        <g id="Header" fill="#333333">
            <g id="Group-40">
                <g id="Group-10" transform="translate(620.000000, 11.000000)">
                    <g id="Group-49" transform="translate(51.000000, 0.000000)">
                        <g id="Group-2">
                            <g id="Group-54">
                                <g id="Group-15" transform="translate(14.000000, 4.000000)">
                                    <path d="M5,13.11 C4.02133333,11.785 0.666666667,7.09033333 0.666666667,5 C0.666666667,2.61066667 2.61066667,0.666666667 5,0.666666667 C7.38933333,0.666666667 9.33333333,2.61066667 9.33333333,5 C9.33333333,7.09033333 5.97866667,11.785 5,13.11 M5,0 C2.243,0 0,2.243 0,5 C0,7.66 4.54233333,13.6173333 4.73566667,13.869 C4.79866667,13.9516667 4.89633333,14 5,14 C5.10366667,14 5.20133333,13.9516667 5.26433333,13.869 C5.45766667,13.6173333 10,7.66 10,5 C10,2.243 7.757,0 5,0 M5,6.66666667 C4.08066667,6.66666667 3.33333333,5.91933333 3.33333333,5 C3.33333333,4.08066667 4.08066667,3.33333333 5,3.33333333 C5.91933333,3.33333333 6.66666667,4.08066667 6.66666667,5 C6.66666667,5.91933333 5.91933333,6.66666667 5,6.66666667 M5,2.66666667 C3.71366667,2.66666667 2.66666667,3.71366667 2.66666667,5 C2.66666667,6.28633333 3.71366667,7.33333333 5,7.33333333 C6.28633333,7.33333333 7.33333333,6.28633333 7.33333333,5 C7.33333333,3.71366667 6.28633333,2.66666667 5,2.66666667" id="Fill-1"></path>
                                </g>
                            </g>
                        </g>
                    </g>
                </g>
            </g>
        </g>
    </g>
</svg>