<?xml version="1.0" encoding="UTF-8"?>
<svg width="650px" height="88px" viewBox="0 0 650 88" version="1.1" xmlns="http://www.w3.org/2000/svg" xmlns:xlink="http://www.w3.org/1999/xlink">
    <!-- Generator: Sketch 48.2 (47327) - http://www.bohemiancoding.com/sketch -->
    <title>Page 1</title>
    <desc>Created with Sketch.</desc>
    <defs>
        <polygon id="path-1" points="0.8041 0.762 12.287 0.762 12.287 12.1848 0.8041 12.1848"></polygon>
    </defs>
    <g id="Symbols" stroke="none" stroke-width="1" fill="none" fill-rule="evenodd">
        <g id="Page-1" transform="translate(0.000000, -1.000000)">
            <polygon id="Fill-1" fill="#333030" points="56.9997 1.0206 40.2097 34.0836 40.0377 34.0836 39.2617 1.0206 12.8307 1.0206 -0.0003 62.4946 17.5657 62.4946 26.0037 20.1336 26.1747 20.1336 28.4137 62.4946 42.4487 62.4946 62.5957 20.1336 62.7667 20.1336 53.2967 62.4946 70.8607 62.4946 83.9477 1.0206"></polygon>
            <path d="M73.2295,62.4942 L89.2565,62.4942 L93.1935,55.1962 L109.8635,55.1962 L110.7215,62.4942 L126.1775,62.4942 L118.2345,11.4062 L102.7795,11.4062 L73.2295,62.4942 Z M106.8575,28.9382 L107.0015,28.9382 L108.7195,44.2482 L98.9155,44.2482 L106.8575,28.9382 Z" id="Fill-2" fill="#333030"></path>
            <polygon id="Fill-3" fill="#333030" points="130.7544 62.4942 146.4974 62.4942 154.3664 24.5002 168.5344 24.5002 171.2534 11.4062 127.1764 11.4062 124.4584 24.5002 138.6264 24.5002"></polygon>
            <polygon id="Fill-4" fill="#333030" points="178.5571 62.4942 194.2991 62.4942 202.1681 24.5002 216.3361 24.5002 219.0561 11.4062 174.9791 11.4062 172.2611 24.5002 186.4291 24.5002"></polygon>
            <g id="Group-26" transform="translate(212.000000, 0.237800)">
                <path d="M23.6607,23.3335 L32.1757,23.3335 C36.2547,23.3335 37.4717,25.7635 37.4717,27.7695 C37.4717,30.8465 35.0377,33.4935 29.8147,33.4935 L21.5147,33.4935 L23.6607,23.3335 Z M0.0497,62.2565 L15.5047,62.2565 L19.2267,44.4405 L26.0237,44.4405 C30.3887,44.4405 32.3907,46.4455 32.3907,49.0925 C32.3907,51.6685 31.6027,54.8145 31.6027,57.2485 C31.6027,59.5375 31.6747,60.9675 32.2477,62.2565 L47.2747,62.2565 C45.9837,59.2525 46.5577,54.0275 46.5577,49.2345 C46.5577,44.4405 45.9137,40.0775 41.2627,38.7875 L41.2627,38.6455 C48.6327,37.4275 53.2107,31.9905 53.2107,24.5495 C53.2107,13.7465 45.9837,11.1675 36.5407,11.1675 L10.6387,11.1675 L0.0497,62.2565 Z" id="Fill-5" fill="#333030"></path>
                <polygon id="Fill-7" fill="#333030" points="50.9258 62.2564 93.7128 62.2564 96.4308 49.1624 69.3848 49.1624 70.7458 42.7954 95.3588 42.7954 97.8628 30.6314 73.3218 30.6314 74.6788 24.2624 101.1548 24.2624 103.8008 11.1684 61.5868 11.1684"></polygon>
                <path d="M146.8008,26.624 C147.0848,14.03 137.2828,9.953 126.4048,9.953 C116.1018,9.953 104.9428,15.249 104.9428,26.768 C104.9428,35.283 110.9518,38.573 117.1738,40.648 C124.2588,43.01 129.4828,43.511 129.4828,47.232 C129.4828,50.594 125.6908,52.167 122.6138,52.167 C120.0378,52.167 118.1768,52.025 116.8218,50.882 C115.5318,49.592 114.8878,47.875 114.8878,45.085 L99.6458,45.085 C99.0048,58.109 109.5928,63.474 121.3258,63.474 C132.4198,63.474 144.3628,57.679 144.3628,45.372 C144.3628,39.288 141.3628,34.422 132.4878,31.276 C127.4818,29.487 119.8248,29.271 119.8248,25.408 C119.8248,22.046 123.2568,21.259 125.9048,21.259 C127.6958,21.259 129.3388,21.545 130.4838,22.404 C131.6318,23.263 132.3428,24.549 132.2738,26.624 L146.8008,26.624 Z" id="Fill-9" fill="#333030"></path>
                <path d="M193.8174,26.624 C194.1024,14.03 184.3004,9.953 173.4224,9.953 C163.1234,9.953 151.9614,15.249 151.9614,26.768 C151.9614,35.283 157.9694,38.573 164.1964,40.648 C171.2824,43.01 176.4994,43.511 176.4994,47.232 C176.4994,50.594 172.7124,52.167 169.6314,52.167 C167.0574,52.167 165.1984,52.025 163.8374,50.882 C162.5454,49.592 161.9044,47.875 161.9044,45.085 L146.6654,45.085 C146.0244,58.109 156.6094,63.474 168.3454,63.474 C179.4374,63.474 191.3844,57.679 191.3844,45.372 C191.3844,39.288 188.3804,34.422 179.5054,31.276 C174.5014,29.487 166.8424,29.271 166.8424,25.408 C166.8424,22.046 170.2764,21.259 172.9254,21.259 C174.7134,21.259 176.3584,21.545 177.5054,22.404 C178.6484,23.263 179.3654,24.549 179.2964,26.624 L193.8174,26.624 Z" id="Fill-11" fill="#333030"></path>
                <polygon id="Fill-13" fill="#333030" points="197.2891 62.2564 216.2301 62.2564 221.1361 38.8374 245.3291 38.8374 248.3441 24.1994 224.1511 24.1994 225.7841 16.5384 254.2851 16.5384 257.5551 0.7834 210.1141 0.7834"></polygon>
                <polygon id="Fill-15" fill="#333030" points="249.8076 62.2564 268.7456 62.2564 281.4946 0.7834 262.5476 0.7834"></polygon>
                <path d="M306.0078,15.4204 L316.2518,15.4204 C321.1578,15.4204 322.6218,18.3474 322.6218,20.7574 C322.6218,24.4604 319.6948,27.6464 313.4108,27.6464 L303.4268,27.6464 L306.0078,15.4204 Z M277.5948,62.2564 L296.1878,62.2564 L300.6698,40.8174 L308.8458,40.8174 C314.1038,40.8174 316.5148,43.2304 316.5148,46.4164 C316.5148,49.5144 315.5608,53.3014 315.5608,56.2324 C315.5608,58.9854 315.6508,60.7064 316.3358,62.2564 L334.4198,62.2564 C332.8718,58.6394 333.5528,52.3544 333.5528,46.5884 C333.5528,40.8174 332.7838,35.5654 327.1878,34.0184 L327.1878,33.8454 C336.0548,32.3784 341.5638,25.8374 341.5638,16.8824 C341.5638,3.8834 332.8718,0.7834 321.5038,0.7834 L290.3358,0.7834 L277.5948,62.2564 Z" id="Fill-17" fill="#333030"></path>
                <polygon id="Fill-19" fill="#333030" points="340.5332 62.2564 358.0972 62.2564 366.5342 19.8964 366.7092 19.8964 368.9412 62.2564 382.9802 62.2564 403.1242 19.8964 403.2962 19.8964 393.8272 62.2564 411.3902 62.2564 424.4782 0.7834 397.5302 0.7834 380.7432 33.8454 380.5642 33.8454 379.7972 0.7834 353.3552 0.7834"></polygon>
                <path d="M195.1436,73.7666 C195.1436,73.7666 248.7566,67.6496 315.3296,66.4786 C382.2716,65.3006 409.9696,70.7606 409.9696,70.7606 L408.5376,78.2076 C408.5376,78.2076 381.2906,72.9086 315.4626,74.0646 C249.2736,75.2296 188.2726,87.9996 188.2726,87.9996 L195.1436,73.7666 Z" id="Fill-21" fill="#333030"></path>
                <g id="Group-25" transform="translate(425.000000, 0.000000)">
                    <mask id="mask-2" fill="white">
                        <use xlink:href="#path-1"></use>
                    </mask>
                    <g id="Clip-24"></g>
                    <path d="M5.3711,6.0918 L6.4561,6.0918 C7.3721,6.0918 8.2111,6.0448 8.2111,4.9928 C8.2111,4.1068 7.4421,3.9698 6.7441,3.9698 L5.3711,3.9698 L5.3711,6.0918 Z M4.3291,3.1308 L6.9121,3.1308 C8.5041,3.1308 9.2451,3.7558 9.2451,5.0378 C9.2451,6.2438 8.4831,6.7478 7.4901,6.8558 L9.4001,9.8028 L8.2851,9.8028 L6.4691,6.9308 L5.3711,6.9308 L5.3711,9.8028 L4.3291,9.8028 L4.3291,3.1308 Z M6.5571,11.3428 C9.2021,11.3428 11.2471,9.2378 11.2471,6.4428 C11.2471,3.7098 9.2021,1.6028 6.5571,1.6028 C3.8911,1.6028 1.8461,3.7098 1.8461,6.4428 C1.8461,9.2378 3.8911,11.3428 6.5571,11.3428 Z M6.5571,0.7618 C9.6751,0.7618 12.2871,3.2208 12.2871,6.4428 C12.2871,9.7268 9.6751,12.1848 6.5571,12.1848 C3.4311,12.1848 0.8041,9.7268 0.8041,6.4428 C0.8041,3.2208 3.4311,0.7618 6.5571,0.7618 Z" id="Fill-23" fill="#333030" mask="url(#mask-2)"></path>
                </g>
            </g>
        </g>
    </g>
</svg>