<?xml version="1.0" encoding="UTF-8"?>
<svg width="83px" height="32px" viewBox="0 0 83 32" version="1.1" xmlns="http://www.w3.org/2000/svg" xmlns:xlink="http://www.w3.org/1999/xlink">
    <!-- Generator: Sketch 47 (45396) - http://www.bohemiancoding.com/sketch -->
    <title>MattressFirm_Logo_Stacked_4C</title>
    <desc>Created with Sketch.</desc>
    <defs></defs>
    <g id="Page-1" stroke="none" stroke-width="1" fill="none" fill-rule="evenodd">
        <g id="MF_Homepage_Mobile_Nav" transform="translate(-66.000000, -27.000000)" fill="#323030">
            <g id="MattressFirm_Logo_Stacked_4C" transform="translate(66.000000, 27.000000)">
                <path d="M64.255681,15.8096608 C63.9040131,15.8096608 63.6392049,15.5291999 63.6392049,15.1775821 C63.6392049,14.8259642 63.9040131,14.5455033 64.255681,14.5455033 C64.6076742,14.5455033 64.8724824,14.8259642 64.8724824,15.1775821 C64.8724824,15.5291999 64.6076742,15.8096608 64.255681,15.8096608 Z M64.255681,14.2579908 C63.7390772,14.2579908 63.3223459,14.6685856 63.3223459,15.1775821 C63.3223459,15.6865785 63.7390772,16.0968527 64.255681,16.0968527 C64.7726101,16.0968527 65.1890161,15.6865785 65.1890161,15.1775821 C65.1890161,14.6685856 64.7726101,14.2579908 64.255681,14.2579908 L64.255681,14.2579908 Z" id="Fill-1"></path>
                <path d="M64.2657658,15.1016172 L64.1109148,15.1016172 L64.1109148,14.8846206 L64.2481987,14.8846206 C64.3457939,14.8846206 64.4307017,14.8894285 64.4307017,14.9881508 C64.4307017,15.0769367 64.3656382,15.1038609 64.2657658,15.1016172 Z M64.6698098,15.0054592 C64.6698098,14.7839752 64.5702627,14.7128183 64.2605607,14.7128183 L63.8864459,14.7128183 L63.8864459,15.64491 L64.1109148,15.64491 L64.1109148,15.273099 L64.2007024,15.273099 L64.3906876,15.64491 L64.6323983,15.64491 L64.4206168,15.2586753 C64.5601779,15.2513032 64.6698098,15.1849542 64.6698098,15.0054592 L64.6698098,15.0054592 Z" id="Fill-2"></path>
                <polyline id="Fill-3" points="46.7145766 26.1069027 50.1687948 26.1069027 51.8282379 17.8988541 51.8620709 17.8988541 52.3022251 26.1069027 55.0622164 26.1069027 59.0245801 17.8988541 59.0584131 17.8988541 57.195972 26.1069027 60.6498649 26.1069027 63.2237748 14.1951676 57.9237067 14.1951676 54.6220622 20.6015355 54.5882292 20.6015355 54.4359808 14.1951676 49.2374116 14.1951676 46.7145766 26.1069027"></polyline>
                <path d="M41.2115105,19.4002013 L39.2475705,19.4002013 L39.7553907,17.0311882 L41.7704055,17.0311882 C42.7352964,17.0311882 43.0232021,17.5985205 43.0232021,18.0658485 C43.0232021,18.7828668 42.447716,19.4002013 41.2115105,19.4002013 Z M46.7484096,17.3148543 C46.7484096,14.7958347 45.038217,14.1951676 42.8032877,14.1951676 L36.6736606,14.1951676 L34.1677421,26.1069027 L37.8249583,26.1069027 L38.705592,21.9528762 L40.3139603,21.9528762 C41.3471678,21.9528762 41.821155,22.4198837 41.821155,23.0372182 C41.821155,23.6378853 41.6350735,24.3718915 41.6350735,24.9392238 C41.6350735,25.4729009 41.65199,25.8065692 41.787322,26.1069027 L45.3430392,26.1069027 C45.038217,25.4065518 45.1735489,24.1885502 45.1735489,23.070553 C45.1735489,21.9528762 45.0213005,20.9352038 43.9207523,20.6348703 L43.9207523,20.6015355 C45.6647779,20.3178693 46.7484096,19.0498656 46.7484096,17.3148543 L46.7484096,17.3148543 Z" id="Fill-4"></path>
                <polyline id="Fill-5" points="28.5293441 26.1069027 32.2545516 26.1069027 34.7604701 14.1951676 31.0352626 14.1951676 28.5293441 26.1069027"></polyline>
                <g id="Group-9">
                    <polyline id="Fill-6" points="17.8618672 26.1069027 21.5870746 26.1069027 22.5522908 21.5692057 27.3103805 21.5692057 27.9031084 18.7328646 23.1446935 18.7328646 23.4664322 17.2481848 29.0713226 17.2481848 29.7148 14.1951676 20.3847022 14.1951676 17.8618672 26.1069027"></polyline>
                    <path d="M0,11.9764815 L3.45421822,11.9764815 L5.11366135,3.76843285 L5.14749434,3.76843285 L5.58764854,11.9764815 L8.34763982,11.9764815 L12.3100035,3.76843285 L12.3438365,3.76843285 L10.4810701,11.9764815 L13.9356137,11.9764815 L16.5091982,0.0647464009 L11.2094554,0.0647464009 L7.90748562,6.4711143 L7.87365263,6.4711143 L7.72107886,0.0647464009 L2.52283503,0.0647464009 L0,11.9764815 Z M21.7071167,5.45632665 L21.7354193,5.45632665 L22.0740745,8.43145582 L20.1410396,8.43145582 L21.7071167,5.45632665 Z M15.0751999,11.9764815 L18.235982,11.9764815 L19.0118635,10.5584712 L22.2998447,10.5584712 L22.4693349,11.9764815 L25.517232,11.9764815 L23.9508296,2.05008901 L20.9029325,2.05008901 L15.0751999,11.9764815 Z M27.5498139,11.9764815 L30.6539908,11.9764815 L32.2060793,4.59410972 L34.9999036,4.59410972 L35.5360263,2.05008901 L26.8442009,2.05008901 L26.3080781,4.59410972 L29.1019024,4.59410972 L27.5498139,11.9764815 Z M36.6931797,11.9764815 L39.7973566,11.9764815 L41.3497703,4.59410972 L44.1435946,4.59410972 L44.6797174,2.05008901 L35.9875666,2.05008901 L35.4514439,4.59410972 L38.2452681,4.59410972 L36.6931797,11.9764815 Z M43.7200316,11.9764815 L46.7679286,11.9764815 L47.5018443,8.51479277 L48.8421512,8.51479277 C49.7029406,8.51479277 50.0978757,8.90423276 50.0978757,9.41867817 C50.0978757,9.91902041 49.9426993,10.5305854 49.9426993,11.0033624 C49.9426993,11.4482535 49.9570133,11.7261501 50.0698984,11.9764815 L53.0328876,11.9764815 C52.7791402,11.3924818 52.8916999,10.3776942 52.8916999,9.44624347 C52.8916999,8.51479277 52.7648262,7.66667902 51.847757,7.41634764 L51.847757,7.38878234 C53.300949,7.15255414 54.2040296,6.09577749 54.2040296,4.64988137 C54.2040296,2.55043125 52.7791402,2.05008901 50.9163738,2.05008901 L45.8082428,2.05008901 L43.7200316,11.9764815 Z M48.3766223,4.41365317 L50.0555844,4.41365317 C50.8600939,4.41365317 51.0998527,4.88643011 51.0998527,5.27554957 C51.0998527,5.87333193 50.6200098,6.38777734 49.5900555,6.38777734 L47.9530592,6.38777734 L48.3766223,4.41365317 Z M54.1760523,11.9764815 L62.613805,11.9764815 L63.1502531,9.43246082 L57.816352,9.43246082 L58.0844134,8.19522761 L62.9384716,8.19522761 L63.4323031,5.83166345 L58.5925589,5.83166345 L58.8606202,4.59410972 L64.081311,4.59410972 L64.6034451,2.05008901 L56.2782522,2.05008901 L54.1760523,11.9764815 Z M73.507052,5.05310401 C73.5633319,2.6062029 71.630297,1.81354028 69.4858059,1.81354028 C67.4535492,1.81354028 65.2524529,2.84275163 65.2524529,5.08098984 C65.2524529,6.73522833 66.4379089,7.37467917 67.6653308,7.7779018 C69.0622429,8.23689609 70.0921972,8.33401569 70.0921972,9.05712401 C70.0921972,9.7103575 69.3442929,10.01614 68.7379016,10.01614 C68.2297561,10.01614 67.8627983,9.98857471 67.5947369,9.76612915 C67.3409895,9.51579777 67.2137905,9.18212944 67.2137905,8.6397982 L64.2081847,8.6397982 C64.081311,11.1703568 66.1695222,12.2130303 68.4838289,12.2130303 C70.6709365,12.2130303 73.0272091,11.0866993 73.0272091,8.69556985 C73.0272091,7.51378777 72.4348065,6.56855442 70.6849252,5.95666888 C69.6972621,5.6092179 68.1874649,5.56754942 68.1874649,4.81655528 C68.1874649,4.16332179 68.8647753,4.01043053 69.3869095,4.01043053 C69.7395533,4.01043053 70.0642199,4.06620219 70.2899901,4.23287609 C70.5157602,4.39987052 70.6566226,4.64988137 70.6426339,5.05310401 L73.507052,5.05310401 Z M82.9184792,5.05310401 C82.9750844,2.6062029 81.0417241,1.81354028 78.897233,1.81354028 C76.8653017,1.81354028 74.6642054,2.84275163 74.6642054,5.08098984 C74.6642054,6.73522833 75.849336,7.37467917 77.0767579,7.7779018 C78.47367,8.23689609 79.5039496,8.33401569 79.5039496,9.05712401 C79.5039496,9.7103575 78.7560454,10.01614 78.1493287,10.01614 C77.6411833,10.01614 77.2745507,9.98857471 77.006164,9.76612915 C76.7524166,9.51579777 76.6255429,9.18212944 76.6255429,8.6397982 L73.6199371,8.6397982 C73.4927381,11.1703568 75.5809493,12.2130303 77.895256,12.2130303 C80.0823637,12.2130303 82.4389616,11.0866993 82.4389616,8.69556985 C82.4389616,7.51378777 81.8462336,6.56855442 80.0966776,5.95666888 C79.1086892,5.6092179 77.598892,5.56754942 77.598892,4.81655528 C77.598892,4.16332179 78.2762025,4.01043053 78.7983366,4.01043053 C79.1509805,4.01043053 79.475647,4.06620219 79.7014172,4.23287609 C79.9271873,4.39987052 80.068375,4.64988137 80.0540611,5.05310401 L82.9184792,5.05310401 L82.9184792,5.05310401 Z" id="Fill-8"></path>
                </g>
                <path d="M17.420737,28.3813605 C17.420737,28.3813605 28.1692179,27.0790603 41.5153568,26.8296905 C54.9353427,26.5790386 60.4894836,27.7412686 60.4894836,27.7412686 L60.2015778,29.3265938 C60.2015778,29.3265938 54.7388511,28.1980192 41.5417075,28.4445042 C28.2716928,28.6925919 16.0430186,31.4116202 16.0430186,31.4116202 L17.420737,28.3813605" id="Fill-10"></path>
            </g>
        </g>
    </g>
</svg>