<?xml version="1.0" encoding="UTF-8"?>
<svg width="9px" height="16px" viewBox="0 0 9 16" version="1.1" xmlns="http://www.w3.org/2000/svg" xmlns:xlink="http://www.w3.org/1999/xlink">
    <!-- Generator: Sketch 48.2 (47327) - http://www.bohemiancoding.com/sketch -->
    <title>Fill 1</title>
    <desc>Created with Sketch.</desc>
    <defs></defs>
    <g id="Componentes/Large/Header" stroke="none" stroke-width="1" fill="none" fill-rule="evenodd" transform="translate(-770.000000, -14.000000)">
        <g id="Header" fill="#FFFFFF">
            <g id="Group-40">
                <g id="Group-10" transform="translate(620.000000, 11.000000)">
                    <g id="Group-49" transform="translate(51.000000, 0.000000)">
                        <g id="Group-2">
                            <path d="M105.762857,4.33333333 L105.756429,4.33333333 C105.579,4.33333333 105.438214,4.48233333 105.438214,4.66666667 C105.438214,4.851 105.585107,5 105.762857,5 C105.940286,5 106.084286,4.851 106.084286,4.66666667 C106.084286,4.48233333 105.940286,4.33333333 105.762857,4.33333333 Z M107.357143,5.66666667 L99.6428571,5.66666667 L99.6428571,5.33333333 C99.6428571,4.414 100.363821,3.66666667 101.25,3.66666667 L105.75,3.66666667 C106.636179,3.66666667 107.357143,4.414 107.357143,5.33333333 L107.357143,5.66666667 Z M99.6428571,15 L107.357143,15 L107.357143,6.33333333 L99.6428571,6.33333333 L99.6428571,15 Z M107.357143,16.6666667 C107.357143,17.586 106.636179,18.3333333 105.75,18.3333333 L101.25,18.3333333 C100.363821,18.3333333 99.6428571,17.586 99.6428571,16.6666667 L99.6428571,15.6666667 L107.357143,15.6666667 L107.357143,16.6666667 Z M105.75,3 L101.25,3 C100.009607,3 99,4.047 99,5.33333333 L99,16.6666667 C99,17.953 100.009607,19 101.25,19 L105.75,19 C106.990393,19 108,17.953 108,16.6666667 L108,5.33333333 C108,4.047 106.990393,3 105.75,3 Z M103.5,17.6666667 C103.854536,17.6666667 104.142857,17.368 104.142857,17 C104.142857,16.632 103.854536,16.3333333 103.5,16.3333333 C103.145464,16.3333333 102.857143,16.632 102.857143,17 C102.857143,17.368 103.145464,17.6666667 103.5,17.6666667 Z M104.464286,4.33333333 L102.535714,4.33333333 C102.357964,4.33333333 102.214286,4.48233333 102.214286,4.66666667 C102.214286,4.851 102.357964,5 102.535714,5 L104.464286,5 C104.642036,5 104.785714,4.851 104.785714,4.66666667 C104.785714,4.48233333 104.642036,4.33333333 104.464286,4.33333333 Z" id="Fill-1"></path>
                        </g>
                    </g>
                </g>
            </g>
        </g>
    </g>
</svg>