<?xml version="1.0" encoding="UTF-8"?>
<svg width="14px" height="16px" viewBox="0 0 14 16" version="1.1" xmlns="http://www.w3.org/2000/svg" xmlns:xlink="http://www.w3.org/1999/xlink">
    <!-- Generator: Sketch 48.2 (47327) - http://www.bohemiancoding.com/sketch -->
    <title>Group 4</title>
    <desc>Created with Sketch.</desc>
    <defs></defs>
    <g id="Componentes/Large/Header" stroke="none" stroke-width="1" fill="none" fill-rule="evenodd" transform="translate(-900.000000, -13.000000)">
        <g id="Header" fill="#323030" fill-rule="nonzero" stroke="#323030" stroke-width="0.25">
            <g id="Group-40">
                <g id="Group-10" transform="translate(620.000000, 11.000000)">
                    <g id="Group-49" transform="translate(51.000000, 0.000000)">
                        <g id="Group-2">
                            <g id="Group-44" transform="translate(229.333333, 2.000000)">
                                <g id="Group-45">
                                    <g id="Group-5">
                                        <g id="Group-4">
                                            <path d="M6.52454962,7.6932152 C8.60447426,7.6932152 10.2834496,6.0142399 10.2834496,3.93431526 C10.2834496,1.85439063 8.60447426,0.17541533 6.52454962,0.17541533 C4.44462499,0.17541533 2.76564969,1.85439063 2.76564969,3.93431526 C2.76564969,6.0142399 4.44462499,7.6932152 6.52454962,7.6932152 Z M6.52454962,0.676601988 C8.32882159,0.676601988 9.7822629,2.1300433 9.7822629,3.93431526 C9.7822629,5.73858723 8.32882159,7.19202854 6.52454962,7.19202854 C4.72027766,7.19202854 3.26683635,5.73858723 3.26683635,3.93431526 C3.26683635,2.1300433 4.72027766,0.676601988 6.52454962,0.676601988 Z" id="Shape"></path>
                                            <path d="M0.710784393,15.864931 L12.3132555,15.864931 C12.5137302,15.864931 12.6891455,15.789753 12.8144422,15.639397 C12.9647982,15.489041 13.0149168,15.2885664 13.0149168,15.0880917 C12.7643235,11.3793105 9.95767823,8.5977245 6.49949029,8.5977245 C3.04130235,8.5977245 0.259716401,11.4043698 0.00912307154,15.0880917 C-0.0159362614,15.2885664 0.0592417373,15.489041 0.209597735,15.639397 C0.334894399,15.789753 0.535369062,15.864931 0.710784393,15.864931 Z M6.52454962,9.09891116 C9.73214424,9.09891116 12.3132555,11.6800224 12.5387895,15.1131511 C12.5387895,15.1883291 12.5137302,15.2384477 12.4886709,15.2885664 C12.4385522,15.338685 12.3884335,15.3637444 12.3383149,15.3637444 L0.710784393,15.3637444 C0.660665727,15.3637444 0.610547061,15.338685 0.560428395,15.2885664 C0.510309729,15.2384477 0.485250397,15.1883291 0.510309729,15.1131511 C0.735843726,11.7050818 3.31695501,9.09891116 6.52454962,9.09891116 Z" id="Shape"></path>
                                        </g>
                                    </g>
                                </g>
                            </g>
                        </g>
                    </g>
                </g>
            </g>
        </g>
    </g>
</svg>