<?xml version="1.0" encoding="UTF-8"?>
<svg width="12px" height="12px" viewBox="0 0 12 12" version="1.1" xmlns="http://www.w3.org/2000/svg" xmlns:xlink="http://www.w3.org/1999/xlink">
    <!-- Generator: Sketch 48.2 (47327) - http://www.bohemiancoding.com/sketch -->
    <title>Shape Copy</title>
    <desc>Created with Sketch.</desc>
    <defs></defs>
    <g id="Componentes/Large/Header" stroke="none" stroke-width="1" fill="none" fill-rule="evenodd" transform="translate(-973.000000, -62.000000)">
        <g id="Header" fill="#333030" fill-rule="nonzero">
            <g id="Group-40">
                <g id="Group-10" transform="translate(620.000000, 11.000000)">
                    <g id="Group-49" transform="translate(51.000000, 0.000000)">
                        <g id="Group-2">
                            <g id="Group-8" transform="translate(99.000000, 46.000000)">
                                <path d="M214.386589,15.8553726 L211.329402,12.7981861 C212.060733,11.9430054 212.460585,10.867549 212.460585,9.73023003 C212.460585,8.46668143 211.96844,7.27889567 211.075065,6.38552048 C210.181564,5.49202006 208.993653,5 207.73023,5 C206.466681,5 205.278896,5.49214529 204.38552,6.38552048 C203.49202,7.27889567 203,8.46668143 203,9.73023003 C203,10.9937786 203.492145,12.1815644 204.38552,13.0750648 C205.278896,13.9685652 206.466681,14.4605853 207.73023,14.4605853 C208.867549,14.4605853 209.94288,14.0607329 210.798186,13.3294025 L213.855373,16.386589 C213.928756,16.4599725 214.024931,16.4966642 214.120981,16.4966642 C214.217031,16.4966642 214.313205,16.4599725 214.386589,16.386589 C214.533356,16.2400724 214.533356,16.0021396 214.386589,15.8553726 Z M207.73023,13.7093437 C206.667422,13.7093437 205.668229,13.2953405 204.916737,12.5438484 C204.16512,11.7922311 203.751242,10.7930384 203.751242,9.73023003 C203.751242,8.66742161 204.16512,7.66822892 204.916737,6.91673684 C205.668229,6.16524476 206.667296,5.75124163 207.73023,5.75124163 C208.792913,5.75124163 209.792231,6.16524476 210.543848,6.91686207 C211.295341,7.66822892 211.709344,8.66742161 211.709344,9.73023003 C211.709344,10.7930384 211.295341,11.7922311 210.543848,12.5438484 C209.792231,13.2953405 208.792913,13.7093437 207.73023,13.7093437 Z" id="Shape-Copy"></path>
                            </g>
                        </g>
                    </g>
                </g>
            </g>
        </g>
    </g>
</svg>